<?xml version="1.0" encoding="UTF-8" standalone="no"?>
<svg
   xmlns:dc="http://purl.org/dc/elements/1.1/"
   xmlns:cc="http://creativecommons.org/ns#"
   xmlns:rdf="http://www.w3.org/1999/02/22-rdf-syntax-ns#"
   xmlns:svg="http://www.w3.org/2000/svg"
   xmlns="http://www.w3.org/2000/svg"
   id="svg1468"
   version="1.1"
   width="44.156254pt"
   viewBox="-28 0 44.156255 49.545803"
   height="49.545803pt">
  <metadata
     id="metadata1474">
    <rdf:RDF>
      <cc:Work
         rdf:about="">
        <dc:format>image/svg+xml</dc:format>
        <dc:type
           rdf:resource="http://purl.org/dc/dcmitype/StillImage" />
        <dc:title></dc:title>
      </cc:Work>
    </rdf:RDF>
  </metadata>
  <defs
     id="defs1472" />
  <path
     id="path1466"
     d="m -5.862626,0 -1.477198,1.5937329 c -0.031,0.033204 -3.205527,3.3441855 -6.991622,3.3441855 l -0.03855,2.938e-4 c -1.793634,0.035555 -3.49234,-0.5060523 -5.860164,-1.8691349 L -21.654906,2.2487624 -28,10.036024 l 1.124518,1.231971 c 0.988859,1.082612 3.554424,4.504636 3.554424,7.299236 0,2.158789 -0.940475,3.953979 -1.935762,5.854202 -1.086383,2.073369 -2.317641,4.42333 -2.317641,7.388387 0,4.264657 1.50413,7.49589 4.597721,9.877688 2.557956,1.970172 5.793678,3.037313 8.922426,4.069267 2.668335,0.880009 5.188918,1.711137 7.017706,3.002023 l 1.114736,0.787008 1.114737,-0.786582 c 1.828788,-1.290871 4.34923,-2.12244 7.017566,-3.002449 3.1287446,-1.031954 6.3640901,-2.09905 8.922425,-4.068841 3.093593,-2.381813 4.597722,-5.613046 4.597722,-9.877687 0,-2.965087 -1.231117,-5.315181 -2.317503,-7.38852 -0.995286,-1.900606 -1.935762,-3.695296 -1.935762,-5.854084 0,-2.77531 2.567315,-6.211747 3.554285,-7.299648 L 16.156255,10.036465 9.8110206,2.2491885 8.3862709,3.0693564 c -2.3054487,1.3271753 -4.0143636,1.868562 -5.8987191,1.868562 -4.0370914,0 -6.9159768,-3.2584869 -6.9390318,-3.2849473 z m -9.796044,12.421995 c 0.588007,0 1.129983,0.08345 1.625751,0.250764 0.501542,0.16718 0.933843,0.452514 1.29703,0.856031 0.368939,0.397772 0.654275,0.928228 0.856037,1.591176 0.20753,0.662949 0.311291,1.487231 0.311291,2.472993 0,0.88778 -0.07492,1.663049 -0.224819,2.326013 -0.149877,0.657174 -0.363156,1.219188 -0.639871,1.686131 -0.27095,0.466971 -0.596759,0.850404 -0.977234,1.15018 -0.380477,0.299776 -0.803997,0.535965 -1.270948,0.708891 -0.461175,0.172954 -0.95704,0.291269 -1.487402,0.354665 -0.524595,0.06347 -1.069461,0.0952 -1.6344,0.0952 h -1.305533 v -1.807321 h 1.539141 c 0.674468,0 1.23649,-0.05759 1.686139,-0.172808 0.455409,-0.120915 0.821586,-0.293973 1.098293,-0.518805 0.282473,-0.230591 0.489838,-0.516057 0.622431,-0.856178 0.138355,-0.34012 0.230723,-0.732089 0.276843,-1.175965 l 0.01731,-0.216178 c -0.305532,0.144129 -0.654409,0.262297 -1.046412,0.354518 -0.392004,0.09227 -0.786853,0.138252 -1.184621,0.138252 -0.547648,0 -1.046261,-0.06332 -1.495906,-0.1901 -0.449651,-0.126939 -0.838872,-0.328558 -1.167468,-0.605282 -0.32283,-0.27671 -0.573577,-0.634226 -0.752278,-1.072342 -0.178711,-0.443876 -0.267911,-0.977079 -0.267911,-1.599669 0,-0.564952 0.100729,-1.077968 0.3025,-1.539151 0.207534,-0.466942 0.492853,-0.864817 0.856038,-1.193405 0.368938,-0.328587 0.804285,-0.582216 1.305818,-0.760915 0.507306,-0.184473 1.060667,-0.276709 1.660197,-0.276709 z m 10.004841,0 c 0.622597,0 1.19614,0.109456 1.720727,0.328455 0.524595,0.219059 0.974198,0.562161 1.3489104,1.029104 0.3804767,0.466956 0.6774761,1.066421 0.8907706,1.798554 0.2132982,0.732119 0.3199309,1.611158 0.3199309,2.637293 0,0.928125 -0.1010254,1.758298 -0.3027794,2.490417 -0.2017687,0.732133 -0.4986256,1.351785 -0.8906295,1.8591 -0.386236,0.501528 -0.858906,0.884843 -1.418084,1.150019 -0.55919,0.265191 -1.199016,0.398051 -1.919602,0.398051 -0.622598,0 -1.19613,-0.109602 -1.720728,-0.328734 -0.524584,-0.219058 -0.977224,-0.562029 -1.357698,-1.028971 -0.380475,-0.472716 -0.677333,-1.07506 -0.890628,-1.807193 -0.213293,-0.732119 -0.31993,-1.608425 -0.31993,-2.628787 0,-0.92814 0.100714,-1.758166 0.302495,-2.490299 0.207528,-0.732119 0.504531,-1.349037 0.890768,-1.850564 0.386243,-0.507301 0.861783,-0.893511 1.426733,-1.158673 0.564942,-0.265191 1.204911,-0.397772 1.919744,-0.397772 z m 9.3388935,0.121063 h 1.7726099 v 9.494534 h 2.4817895 v 1.876496 H 0.4164103 v -1.876496 h 2.879549 v -7.26352 L 0.7880854,16.157723 0.0964773,14.436714 Z m -9.4687385,1.5998 c -0.322829,0 -0.622572,0.08345 -0.899271,0.250764 -0.276713,0.161406 -0.518667,0.412155 -0.726196,0.752261 -0.201763,0.340135 -0.363302,0.766675 -0.484363,1.27975 -0.115303,0.513045 -0.172941,1.121193 -0.172941,1.824485 v 0.328867 c 0,0.098 0.0056,0.198739 0.01729,0.302494 l 4.236962,-3.061129 c -0.201764,-0.570697 -0.46966,-0.991506 -0.804015,-1.262442 -0.328593,-0.27671 -0.717821,-0.41505 -1.167469,-0.41505 z m -9.978616,0.05186 c -0.2767,0 -0.527589,0.04628 -0.75242,0.138399 -0.224829,0.09212 -0.417918,0.221806 -0.579338,0.388972 -0.155647,0.16718 -0.276696,0.368917 -0.363169,0.605282 -0.08645,0.230591 -0.129848,0.489979 -0.129848,0.778222 0,0.611057 0.161534,1.066436 0.484366,1.366197 0.322827,0.294003 0.769704,0.441143 1.340406,0.441143 0.155647,0 0.319791,-0.01322 0.492728,-0.04319 0.17871,-0.0288 0.354522,-0.06935 0.527459,-0.121062 0.178709,-0.05186 0.345872,-0.109456 0.50152,-0.17294 0.161406,-0.0692 0.30277,-0.141191 0.423835,-0.216164 0,-0.513061 -0.03458,-0.96556 -0.103755,-1.357559 -0.06341,-0.392012 -0.172934,-0.720438 -0.328578,-0.9856 -0.149891,-0.27095 -0.348895,-0.47586 -0.596779,-0.614215 -0.247882,-0.138252 -0.553239,-0.207378 -0.916421,-0.207378 z m 12.244238,3.50211 -4.211164,3.043704 c 0.184466,0.559194 0.443717,0.974332 0.778078,1.245297 0.33435,0.270936 0.72358,0.406249 1.167464,0.406249 0.322821,0 0.622572,-0.08345 0.899274,-0.250763 0.282474,-0.167166 0.524715,-0.41793 0.726479,-0.752276 0.207528,-0.340121 0.36879,-0.76666 0.484083,-1.279735 0.115289,-0.51882 0.172936,-1.126938 0.172936,-1.824471 0,-0.098 -0.0028,-0.195992 -0.0084,-0.294003 -0.0056,-0.103872 -0.0082,-0.201765 -0.0082,-0.294002 z m -15.772302,8.12537 h 3.31175 c 0.732123,0 1.377862,0.08081 1.937037,0.24211 0.564953,0.155647 1.037469,0.386209 1.417944,0.691744 0.386242,0.305521 0.677475,0.683092 0.873475,1.132741 0.201766,0.443876 0.302639,0.95416 0.302639,1.530646 0,0.587989 -0.098,1.132858 -0.293994,1.634385 -0.195999,0.495768 -0.487091,0.925216 -0.873331,1.288389 -0.386239,0.363187 -0.867688,0.645626 -1.444166,0.847392 -0.576477,0.20178 -1.245121,0.302641 -2.006074,0.302641 h -1.080857 v 3.631826 h -2.144423 z m 9.753945,0 h 3.311889 c 0.732125,0 1.377709,0.08081 1.936895,0.24211 0.564942,0.155647 1.037618,0.386209 1.4180863,0.691744 0.3862417,0.305521 0.677332,0.683092 0.8733325,1.132741 0.2017672,0.443876 0.3027852,0.95416 0.3027852,1.530646 0,0.587989 -0.097981,1.132858 -0.2939949,1.634385 -0.1960035,0.495768 -0.4872363,0.925216 -0.8734751,1.288389 -0.38624,0.363187 -0.867551,0.645626 -1.444028,0.847392 -0.576476,0.20178 -1.24526,0.302641 -2.006212,0.302641 H -7.39199 v 3.631826 h -2.144419 z m 10.1776385,0 h 6.8052199 v 1.798686 H 2.8030858 v 2.810233 h 4.4271941 v 1.755316 H 2.8030858 v 3.138938 h 4.6433636 v 1.798701 H 0.6412295 Z m -17.7871605,1.764086 v 4.142007 h 1.18462 c 0.36895,0 0.69462,-0.04907 0.977095,-0.146949 0.282473,-0.103873 0.518815,-0.250896 0.709045,-0.441143 0.196,-0.190233 0.34313,-0.41793 0.441131,-0.683092 0.10377,-0.265176 0.155643,-0.562043 0.155643,-0.890631 0,-0.299776 -0.04898,-0.570814 -0.146991,-0.812939 -0.09222,-0.247884 -0.236342,-0.458142 -0.432341,-0.631096 -0.19024,-0.17294 -0.432478,-0.305653 -0.726481,-0.39789 -0.294004,-0.09212 -0.642739,-0.138105 -1.046268,-0.138105 z m 9.753941,0 v 4.142007 h 1.184622 c 0.368938,0 0.69477,-0.04907 0.977234,-0.146949 0.282478,-0.103873 0.518817,-0.250896 0.709046,-0.441143 0.196001,-0.190233 0.342986,-0.41793 0.440989,-0.683092 0.10377,-0.265176 0.155643,-0.562043 0.155643,-0.890631 0,-0.299776 -0.04898,-0.570814 -0.146991,-0.812939 -0.09222,-0.247884 -0.23634,-0.458142 -0.432344,-0.631096 -0.190237,-0.17294 -0.432335,-0.305653 -0.726338,-0.39789 -0.294,-0.09212 -0.642878,-0.138105 -1.046408,-0.138105 z"
     style="stroke-width:0.09676922" />
</svg>
